<!--?xml version="1.0" encoding="utf-8"?-->
<!-- Svg Vector Icons : http://www.onlinewebfonts.com/icon -->

<svg version="1.1" xmlns="http://www.w3.org/2000/svg" xmlns:xlink="http://www.w3.org/1999/xlink" x="0px" y="0px" viewBox="0 0 256 256" enable-background="new 0 0 256 256" xml:space="preserve">
<metadata> Svg Vector Icons : http://www.onlinewebfonts.com/icon </metadata>
<g><g><g><path fill="#fb2e00" data-title="Layer 0" xs="0" d="M93,12.7C90.3,13.2,48.4,37.4,46,39.9c-2.4,2.4-3.5,6.2-3,9.4c0.2,1.6,4.2,8.9,12,22.4C61.3,82.9,66.5,92,66.5,92.2c0,0.2-10.8,0.3-24,0.4l-24,0.2l-2.7,1.7c-2,1.2-3.2,2.5-4.3,4.7L10,102v25.9v25.9l1.6,3c1.1,2.2,2.2,3.4,4.2,4.7l2.7,1.7l24,0.2c13.2,0.1,24,0.3,24,0.4s-5.1,9.1-11.4,20c-6.3,10.9-11.6,20.8-12,22.2c-0.8,3,0.1,6.8,2.3,9.5c1.8,2.3,43.8,26.8,47.4,27.7c4.3,1.1,9.5-1,12-4.8c0.7-1.2,6.2-10.5,12.1-20.8c5.9-10.3,10.9-18.7,11-18.7s5.2,8.4,11.1,18.7c5.9,10.3,11.4,19.7,12.1,20.8c2.6,3.9,7.6,5.8,12.2,4.6c3.7-1,44.8-24.8,46.9-27.2c2.2-2.4,3.3-6.2,2.8-9.2c-0.3-1.6-4.2-8.9-12-22.4c-6.4-11.1-11.6-20.2-11.6-20.4s10.8-0.3,24-0.4l24-0.2l2.7-1.7c2-1.2,3.2-2.5,4.3-4.7l1.6-2.9V128v-25.9l-1.5-3c-1.2-2.2-2.2-3.4-4.3-4.7l-2.7-1.7l-24-0.2c-13.2-0.1-24-0.3-24-0.4c0-0.2,5.1-9.1,11.4-19.9c6.3-10.9,11.7-20.8,12-22.2c0.8-3.1-0.1-6.9-2.2-9.6c-1.6-1.9-4.2-3.5-33.8-20.5c-12.5-7.2-13-7.4-16.1-7.4c-4,0-7.5,1.8-9.6,5c-0.7,1.2-6.2,10.5-12.1,20.8c-5.9,10.3-10.9,18.7-11,18.7c-0.2,0-5.1-8.4-11-18.7c-5.9-10.3-11.5-19.7-12.4-21C102.3,13.9,97.4,11.9,93,12.7z M104.7,63.5c7.4,13,14.1,24.2,14.7,24.9c2.1,2.3,4.7,3.3,8.5,3.3c4.3,0,7.3-1.4,9.5-4.6c0.8-1.1,7.3-12.1,14.3-24.5c7.1-12.4,13-22.5,13-22.6c0.1-0.1,20.2,11.4,20.7,11.8c0.1,0.1-5.9,10.7-13.3,23.6c-7.4,12.9-13.8,24.2-14.2,25.1c-2,5.4,0.5,11.4,6,14.2c1.9,1,3.6,1.1,30.4,1.1h28.3V128v12.1l-29,0.2l-29,0.2l-2.3,1.6c-4.1,2.8-6,8.5-4.4,13.1c0.3,1.1,6.6,12.1,13.8,24.7c7.3,12.5,13.4,23.1,13.5,23.5c0.2,0.6-2.5,2.4-10.1,6.8c-5.7,3.3-10.5,5.8-10.6,5.5c-0.1-0.2-6.3-11.2-13.9-24.3c-13.1-22.7-13.9-23.9-16.4-25.5c-2.3-1.4-3.2-1.7-6.3-1.7c-5.2,0-7.7,1.6-10.9,6.6c-2,3.3-15.9,27.2-23.7,41c-1.2,2.1-2.3,3.9-2.3,4c-0.1,0.1-20.2-11.4-20.7-11.9c-0.1-0.1,0.9-2.1,2.3-4.5c15.1-25.9,24.7-42.9,25.2-44.4c1.6-4.6-0.3-10.3-4.4-13.1l-2.3-1.6l-29-0.2l-29-0.2V128v-12.2h28.3c27.2,0,28.4-0.1,30.5-1.1c4.6-2.3,7-6.8,6.5-11.6c-0.3-2.9-0.2-2.5-23.8-43.4c-3.5-6.1-4.3-7.8-3.7-8.1C85.4,43,90.7,40,90.9,39.9C91.1,39.9,97.3,50.5,104.7,63.5z"/></g></g></g>
</svg>